<mxfile host="app.diagrams.net" modified="2020-11-22T10:44:39.681Z" agent="5.0 (Windows NT 10.0; WOW64) AppleWebKit/537.36 (KHTML, like Gecko) Chrome/70.0.3538.25 Safari/537.36 Core/1.70.3823.400 QQBrowser/10.7.4307.400" etag="LciL0NEWtBfAoeAiD95D" version="13.10.0" type="github" pages="2">
  <diagram id="TVX21sVX0WDwAyLNo6e5" name="表设计">
    <mxGraphModel dx="1038" dy="584" grid="1" gridSize="10" guides="1" tooltips="1" connect="1" arrows="1" fold="1" page="1" pageScale="1" pageWidth="827" pageHeight="1169" math="0" shadow="0">
      <root>
        <mxCell id="0" />
        <mxCell id="1" parent="0" />
        <mxCell id="1796EEAHaFCPbBEa1wXh-1" value="&lt;map version=&quot;1.0.1&quot;&gt; &#xa;&lt;!-- &#xa;Generated by NB Mind Map Plugin (https://github.com/raydac/netbeans-mmd-plugin) &#xa;2020-09-06 19:11:33.323 &#xa;--&gt; &#xa; &lt;node CREATED=&quot;1599390693323&quot; MODIFIED=&quot;1599390693324&quot; COLOR=&quot;#000000&quot; BACKGROUND_COLOR=&quot;#00FFFF&quot;   ID=&quot;mmlink65&quot; TEXT=&quot;SpringCloud&quot; &gt; &#xa;  &lt;edge WIDTH=&quot;thin&quot;/&gt;  &lt;node CREATED=&quot;1599390693329&quot; MODIFIED=&quot;1599390693329&quot; COLOR=&quot;#000000&quot; BACKGROUND_COLOR=&quot;#00FFFF&quot; POSITION=&quot;right&quot; ID=&quot;mmlink6565&quot; TEXT=&quot;&amp;#26381;&amp;#21153;&amp;#27835;&amp;#29702;&quot; &gt; &#xa;   &lt;edge WIDTH=&quot;thin&quot;/&gt;   &lt;node CREATED=&quot;1599390693329&quot; MODIFIED=&quot;1599390693329&quot; COLOR=&quot;#000000&quot; BACKGROUND_COLOR=&quot;#00FFFF&quot;   ID=&quot;mmlink656565&quot; TEXT=&quot;Eureka&quot; &gt; &#xa;    &lt;edge WIDTH=&quot;thin&quot;/&gt;    &lt;node CREATED=&quot;1599390693329&quot; MODIFIED=&quot;1599390693329&quot; COLOR=&quot;#000000&quot; BACKGROUND_COLOR=&quot;#00FFFF&quot;   ID=&quot;mmlink65656565&quot; TEXT=&quot;POM&quot; &gt; &#xa;     &lt;edge WIDTH=&quot;thin&quot;/&gt;    &lt;/node&gt; &#xa;    &lt;node CREATED=&quot;1599390693329&quot; MODIFIED=&quot;1599390693329&quot; COLOR=&quot;#000000&quot; BACKGROUND_COLOR=&quot;#00FFFF&quot;   ID=&quot;mmlink65656566&quot; TEXT=&quot;YML&quot; &gt; &#xa;     &lt;edge WIDTH=&quot;thin&quot;/&gt;    &lt;/node&gt; &#xa;   &lt;/node&gt; &#xa;   &lt;node CREATED=&quot;1599390693329&quot; MODIFIED=&quot;1599390693329&quot; COLOR=&quot;#000000&quot; BACKGROUND_COLOR=&quot;#00FFFF&quot;   ID=&quot;mmlink656566&quot; TEXT=&quot;Zookeeper&quot; &gt; &#xa;    &lt;edge WIDTH=&quot;thin&quot;/&gt;   &lt;/node&gt; &#xa;   &lt;node CREATED=&quot;1599390693329&quot; MODIFIED=&quot;1599390693329&quot; COLOR=&quot;#000000&quot; BACKGROUND_COLOR=&quot;#00FFFF&quot;   ID=&quot;mmlink656567&quot; TEXT=&quot;Consul&quot; &gt; &#xa;    &lt;edge WIDTH=&quot;thin&quot;/&gt;   &lt;/node&gt; &#xa;  &lt;/node&gt; &#xa;  &lt;node CREATED=&quot;1599390693329&quot; MODIFIED=&quot;1599390693329&quot; COLOR=&quot;#000000&quot; BACKGROUND_COLOR=&quot;#00FFFF&quot; POSITION=&quot;right&quot; ID=&quot;mmlink6566&quot; TEXT=&quot;&amp;#36127;&amp;#36733;&amp;#22343;&amp;#34913;&quot; &gt; &#xa;   &lt;edge WIDTH=&quot;thin&quot;/&gt;  &lt;/node&gt; &#xa;  &lt;node CREATED=&quot;1599390693329&quot; MODIFIED=&quot;1599390693329&quot; COLOR=&quot;#000000&quot; BACKGROUND_COLOR=&quot;#00FFFF&quot; POSITION=&quot;right&quot; ID=&quot;mmlink6567&quot; TEXT=&quot;&amp;#26381;&amp;#21153;&amp;#29076;&amp;#26029;&quot; &gt; &#xa;   &lt;edge WIDTH=&quot;thin&quot;/&gt;  &lt;/node&gt; &#xa;  &lt;node CREATED=&quot;1599390693329&quot; MODIFIED=&quot;1599390693329&quot; COLOR=&quot;#000000&quot; BACKGROUND_COLOR=&quot;#00FFFF&quot; POSITION=&quot;right&quot; ID=&quot;mmlink6568&quot; TEXT=&quot;&amp;#32593;&amp;#20851;&quot; &gt; &#xa;   &lt;edge WIDTH=&quot;thin&quot;/&gt;  &lt;/node&gt; &#xa; &lt;/node&gt; &#xa;&lt;/map&gt;" style="text;whiteSpace=wrap;html=1;" parent="1" vertex="1">
          <mxGeometry width="30" height="310" as="geometry" />
        </mxCell>
        <mxCell id="kQaS527iCov22ewZqlWK-1" value="my_account" style="shape=table;startSize=30;container=1;collapsible=1;childLayout=tableLayout;fixedRows=1;rowLines=0;fontStyle=1;align=center;resizeLast=1;" parent="1" vertex="1">
          <mxGeometry x="90" y="80" width="370" height="270" as="geometry" />
        </mxCell>
        <mxCell id="kQaS527iCov22ewZqlWK-2" value="" style="shape=partialRectangle;collapsible=0;dropTarget=0;pointerEvents=0;fillColor=none;top=0;left=0;bottom=1;right=0;points=[[0,0.5],[1,0.5]];portConstraint=eastwest;" parent="kQaS527iCov22ewZqlWK-1" vertex="1">
          <mxGeometry y="30" width="370" height="30" as="geometry" />
        </mxCell>
        <mxCell id="kQaS527iCov22ewZqlWK-3" value="PK" style="shape=partialRectangle;connectable=0;fillColor=none;top=0;left=0;bottom=0;right=0;fontStyle=1;overflow=hidden;" parent="kQaS527iCov22ewZqlWK-2" vertex="1">
          <mxGeometry width="30" height="30" as="geometry" />
        </mxCell>
        <mxCell id="kQaS527iCov22ewZqlWK-4" value="id" style="shape=partialRectangle;connectable=0;fillColor=none;top=0;left=0;bottom=0;right=0;align=left;spacingLeft=6;fontStyle=5;overflow=hidden;" parent="kQaS527iCov22ewZqlWK-2" vertex="1">
          <mxGeometry x="30" width="340" height="30" as="geometry" />
        </mxCell>
        <mxCell id="kQaS527iCov22ewZqlWK-26" style="shape=partialRectangle;collapsible=0;dropTarget=0;pointerEvents=0;fillColor=none;top=0;left=0;bottom=0;right=0;points=[[0,0.5],[1,0.5]];portConstraint=eastwest;" parent="kQaS527iCov22ewZqlWK-1" vertex="1">
          <mxGeometry y="60" width="370" height="30" as="geometry" />
        </mxCell>
        <mxCell id="kQaS527iCov22ewZqlWK-27" style="shape=partialRectangle;connectable=0;fillColor=none;top=0;left=0;bottom=0;right=0;editable=1;overflow=hidden;" parent="kQaS527iCov22ewZqlWK-26" vertex="1">
          <mxGeometry width="30" height="30" as="geometry" />
        </mxCell>
        <mxCell id="kQaS527iCov22ewZqlWK-28" value="app_name VARCHAR(20) 应用名称" style="shape=partialRectangle;connectable=0;fillColor=none;top=0;left=0;bottom=0;right=0;align=left;spacingLeft=6;overflow=hidden;" parent="kQaS527iCov22ewZqlWK-26" vertex="1">
          <mxGeometry x="30" width="340" height="30" as="geometry" />
        </mxCell>
        <mxCell id="kQaS527iCov22ewZqlWK-5" value="" style="shape=partialRectangle;collapsible=0;dropTarget=0;pointerEvents=0;fillColor=none;top=0;left=0;bottom=0;right=0;points=[[0,0.5],[1,0.5]];portConstraint=eastwest;" parent="kQaS527iCov22ewZqlWK-1" vertex="1">
          <mxGeometry y="90" width="370" height="30" as="geometry" />
        </mxCell>
        <mxCell id="kQaS527iCov22ewZqlWK-6" value="" style="shape=partialRectangle;connectable=0;fillColor=none;top=0;left=0;bottom=0;right=0;editable=1;overflow=hidden;" parent="kQaS527iCov22ewZqlWK-5" vertex="1">
          <mxGeometry width="30" height="30" as="geometry" />
        </mxCell>
        <mxCell id="kQaS527iCov22ewZqlWK-7" value="app_url VARCHAR(100) 应用网址" style="shape=partialRectangle;connectable=0;fillColor=none;top=0;left=0;bottom=0;right=0;align=left;spacingLeft=6;overflow=hidden;" parent="kQaS527iCov22ewZqlWK-5" vertex="1">
          <mxGeometry x="30" width="340" height="30" as="geometry" />
        </mxCell>
        <mxCell id="kQaS527iCov22ewZqlWK-8" value="" style="shape=partialRectangle;collapsible=0;dropTarget=0;pointerEvents=0;fillColor=none;top=0;left=0;bottom=0;right=0;points=[[0,0.5],[1,0.5]];portConstraint=eastwest;" parent="kQaS527iCov22ewZqlWK-1" vertex="1">
          <mxGeometry y="120" width="370" height="30" as="geometry" />
        </mxCell>
        <mxCell id="kQaS527iCov22ewZqlWK-9" value="" style="shape=partialRectangle;connectable=0;fillColor=none;top=0;left=0;bottom=0;right=0;editable=1;overflow=hidden;" parent="kQaS527iCov22ewZqlWK-8" vertex="1">
          <mxGeometry width="30" height="30" as="geometry" />
        </mxCell>
        <mxCell id="kQaS527iCov22ewZqlWK-10" value="my_username VARCHAR(200) 加密用户名" style="shape=partialRectangle;connectable=0;fillColor=none;top=0;left=0;bottom=0;right=0;align=left;spacingLeft=6;overflow=hidden;" parent="kQaS527iCov22ewZqlWK-8" vertex="1">
          <mxGeometry x="30" width="340" height="30" as="geometry" />
        </mxCell>
        <mxCell id="kQaS527iCov22ewZqlWK-11" value="" style="shape=partialRectangle;collapsible=0;dropTarget=0;pointerEvents=0;fillColor=none;top=0;left=0;bottom=0;right=0;points=[[0,0.5],[1,0.5]];portConstraint=eastwest;" parent="kQaS527iCov22ewZqlWK-1" vertex="1">
          <mxGeometry y="150" width="370" height="30" as="geometry" />
        </mxCell>
        <mxCell id="kQaS527iCov22ewZqlWK-12" value="" style="shape=partialRectangle;connectable=0;fillColor=none;top=0;left=0;bottom=0;right=0;editable=1;overflow=hidden;" parent="kQaS527iCov22ewZqlWK-11" vertex="1">
          <mxGeometry width="30" height="30" as="geometry" />
        </mxCell>
        <mxCell id="kQaS527iCov22ewZqlWK-13" value="my_password VARCHAR(200) 加密密码" style="shape=partialRectangle;connectable=0;fillColor=none;top=0;left=0;bottom=0;right=0;align=left;spacingLeft=6;overflow=hidden;" parent="kQaS527iCov22ewZqlWK-11" vertex="1">
          <mxGeometry x="30" width="340" height="30" as="geometry" />
        </mxCell>
        <mxCell id="kQaS527iCov22ewZqlWK-14" style="shape=partialRectangle;collapsible=0;dropTarget=0;pointerEvents=0;fillColor=none;top=0;left=0;bottom=0;right=0;points=[[0,0.5],[1,0.5]];portConstraint=eastwest;" parent="kQaS527iCov22ewZqlWK-1" vertex="1">
          <mxGeometry y="180" width="370" height="30" as="geometry" />
        </mxCell>
        <mxCell id="kQaS527iCov22ewZqlWK-15" style="shape=partialRectangle;connectable=0;fillColor=none;top=0;left=0;bottom=0;right=0;editable=1;overflow=hidden;" parent="kQaS527iCov22ewZqlWK-14" vertex="1">
          <mxGeometry width="30" height="30" as="geometry" />
        </mxCell>
        <mxCell id="kQaS527iCov22ewZqlWK-16" value="remark VARCHAR(200) 备注" style="shape=partialRectangle;connectable=0;fillColor=none;top=0;left=0;bottom=0;right=0;align=left;spacingLeft=6;overflow=hidden;" parent="kQaS527iCov22ewZqlWK-14" vertex="1">
          <mxGeometry x="30" width="340" height="30" as="geometry" />
        </mxCell>
        <mxCell id="kQaS527iCov22ewZqlWK-17" style="shape=partialRectangle;collapsible=0;dropTarget=0;pointerEvents=0;fillColor=none;top=0;left=0;bottom=0;right=0;points=[[0,0.5],[1,0.5]];portConstraint=eastwest;" parent="kQaS527iCov22ewZqlWK-1" vertex="1">
          <mxGeometry y="210" width="370" height="30" as="geometry" />
        </mxCell>
        <mxCell id="kQaS527iCov22ewZqlWK-18" style="shape=partialRectangle;connectable=0;fillColor=none;top=0;left=0;bottom=0;right=0;editable=1;overflow=hidden;" parent="kQaS527iCov22ewZqlWK-17" vertex="1">
          <mxGeometry width="30" height="30" as="geometry" />
        </mxCell>
        <mxCell id="kQaS527iCov22ewZqlWK-19" value="create_time TIMESTAMP(3) WITH TIME ZONE 创建时间" style="shape=partialRectangle;connectable=0;fillColor=none;top=0;left=0;bottom=0;right=0;align=left;spacingLeft=6;overflow=hidden;" parent="kQaS527iCov22ewZqlWK-17" vertex="1">
          <mxGeometry x="30" width="340" height="30" as="geometry" />
        </mxCell>
        <mxCell id="kQaS527iCov22ewZqlWK-20" style="shape=partialRectangle;collapsible=0;dropTarget=0;pointerEvents=0;fillColor=none;top=0;left=0;bottom=0;right=0;points=[[0,0.5],[1,0.5]];portConstraint=eastwest;" parent="kQaS527iCov22ewZqlWK-1" vertex="1">
          <mxGeometry y="240" width="370" height="30" as="geometry" />
        </mxCell>
        <mxCell id="kQaS527iCov22ewZqlWK-21" style="shape=partialRectangle;connectable=0;fillColor=none;top=0;left=0;bottom=0;right=0;editable=1;overflow=hidden;" parent="kQaS527iCov22ewZqlWK-20" vertex="1">
          <mxGeometry width="30" height="30" as="geometry" />
        </mxCell>
        <mxCell id="kQaS527iCov22ewZqlWK-22" value="update_time TIMESTAMP(3) WITH TIME ZONE 更新时间" style="shape=partialRectangle;connectable=0;fillColor=none;top=0;left=0;bottom=0;right=0;align=left;spacingLeft=6;overflow=hidden;" parent="kQaS527iCov22ewZqlWK-20" vertex="1">
          <mxGeometry x="30" width="340" height="30" as="geometry" />
        </mxCell>
        <mxCell id="RUngMGris7Sc3JhXxNcc-1" value="h2database数据类型&lt;br&gt;带时区时间：&lt;span style=&quot;font-family: &amp;#34;arial&amp;#34; , sans-serif ; font-size: 13px ; background-color: rgb(255 , 255 , 255)&quot;&gt;TIMESTAMP(3) WITH TIME ZONE&lt;br&gt;3是小数秒精度&lt;br&gt;&lt;/span&gt;" style="shape=document;whiteSpace=wrap;html=1;boundedLbl=1;verticalAlign=top;align=left;" parent="1" vertex="1">
          <mxGeometry x="480" y="200" width="310" height="120" as="geometry" />
        </mxCell>
      </root>
    </mxGraphModel>
  </diagram>
  <diagram id="OcgWifocVJ4YbS7SpMjv" name="流程图">
    <mxGraphModel dx="2310" dy="834" grid="1" gridSize="10" guides="1" tooltips="1" connect="1" arrows="1" fold="1" page="1" pageScale="1" pageWidth="827" pageHeight="1169" math="0" shadow="0">
      <root>
        <mxCell id="nLPJrIclQXHNpDVG5_ci-0" />
        <mxCell id="nLPJrIclQXHNpDVG5_ci-1" parent="nLPJrIclQXHNpDVG5_ci-0" />
        <mxCell id="nLPJrIclQXHNpDVG5_ci-4" value="" style="edgeStyle=orthogonalEdgeStyle;rounded=0;orthogonalLoop=1;jettySize=auto;html=1;" edge="1" parent="nLPJrIclQXHNpDVG5_ci-1" source="nLPJrIclQXHNpDVG5_ci-2" target="nLPJrIclQXHNpDVG5_ci-3">
          <mxGeometry relative="1" as="geometry" />
        </mxCell>
        <mxCell id="nLPJrIclQXHNpDVG5_ci-2" value="存储开始" style="strokeWidth=2;html=1;shape=mxgraph.flowchart.start_2;whiteSpace=wrap;" vertex="1" parent="nLPJrIclQXHNpDVG5_ci-1">
          <mxGeometry x="130" y="70" width="90" height="70" as="geometry" />
        </mxCell>
        <mxCell id="nLPJrIclQXHNpDVG5_ci-6" value="" style="edgeStyle=orthogonalEdgeStyle;rounded=0;orthogonalLoop=1;jettySize=auto;html=1;" edge="1" parent="nLPJrIclQXHNpDVG5_ci-1" source="nLPJrIclQXHNpDVG5_ci-3" target="nLPJrIclQXHNpDVG5_ci-9">
          <mxGeometry relative="1" as="geometry" />
        </mxCell>
        <mxCell id="nLPJrIclQXHNpDVG5_ci-3" value="输入要存储的数据" style="whiteSpace=wrap;html=1;strokeWidth=2;" vertex="1" parent="nLPJrIclQXHNpDVG5_ci-1">
          <mxGeometry x="115" y="190" width="120" height="60" as="geometry" />
        </mxCell>
        <mxCell id="nLPJrIclQXHNpDVG5_ci-8" value="" style="edgeStyle=orthogonalEdgeStyle;rounded=0;orthogonalLoop=1;jettySize=auto;html=1;" edge="1" parent="nLPJrIclQXHNpDVG5_ci-1" source="nLPJrIclQXHNpDVG5_ci-5" target="7S0t2VQkdnMPl0QgdL5P-5">
          <mxGeometry relative="1" as="geometry" />
        </mxCell>
        <mxCell id="nLPJrIclQXHNpDVG5_ci-5" value="加密用户名、密码" style="whiteSpace=wrap;html=1;strokeWidth=2;" vertex="1" parent="nLPJrIclQXHNpDVG5_ci-1">
          <mxGeometry x="115" y="420" width="120" height="60" as="geometry" />
        </mxCell>
        <mxCell id="7S0t2VQkdnMPl0QgdL5P-15" value="" style="edgeStyle=orthogonalEdgeStyle;rounded=0;orthogonalLoop=1;jettySize=auto;html=1;" edge="1" parent="nLPJrIclQXHNpDVG5_ci-1" source="nLPJrIclQXHNpDVG5_ci-7" target="7S0t2VQkdnMPl0QgdL5P-12">
          <mxGeometry relative="1" as="geometry" />
        </mxCell>
        <mxCell id="nLPJrIclQXHNpDVG5_ci-7" value="密文存储到数据库" style="whiteSpace=wrap;html=1;strokeWidth=2;" vertex="1" parent="nLPJrIclQXHNpDVG5_ci-1">
          <mxGeometry x="115" y="660" width="120" height="60" as="geometry" />
        </mxCell>
        <mxCell id="7S0t2VQkdnMPl0QgdL5P-1" value="" style="edgeStyle=orthogonalEdgeStyle;rounded=0;orthogonalLoop=1;jettySize=auto;html=1;" edge="1" parent="nLPJrIclQXHNpDVG5_ci-1" source="nLPJrIclQXHNpDVG5_ci-9" target="7S0t2VQkdnMPl0QgdL5P-0">
          <mxGeometry relative="1" as="geometry" />
        </mxCell>
        <mxCell id="7S0t2VQkdnMPl0QgdL5P-2" value="否" style="edgeLabel;html=1;align=center;verticalAlign=middle;resizable=0;points=[];" vertex="1" connectable="0" parent="7S0t2VQkdnMPl0QgdL5P-1">
          <mxGeometry x="-0.1744" relative="1" as="geometry">
            <mxPoint as="offset" />
          </mxGeometry>
        </mxCell>
        <mxCell id="7S0t2VQkdnMPl0QgdL5P-3" value="" style="edgeStyle=orthogonalEdgeStyle;rounded=0;orthogonalLoop=1;jettySize=auto;html=1;" edge="1" parent="nLPJrIclQXHNpDVG5_ci-1" source="nLPJrIclQXHNpDVG5_ci-9" target="nLPJrIclQXHNpDVG5_ci-5">
          <mxGeometry relative="1" as="geometry" />
        </mxCell>
        <mxCell id="7S0t2VQkdnMPl0QgdL5P-4" value="是" style="edgeLabel;html=1;align=center;verticalAlign=middle;resizable=0;points=[];" vertex="1" connectable="0" parent="7S0t2VQkdnMPl0QgdL5P-3">
          <mxGeometry x="-0.3418" relative="1" as="geometry">
            <mxPoint as="offset" />
          </mxGeometry>
        </mxCell>
        <mxCell id="nLPJrIclQXHNpDVG5_ci-9" value="参数是否合法" style="strokeWidth=2;html=1;shape=mxgraph.flowchart.decision;whiteSpace=wrap;" vertex="1" parent="nLPJrIclQXHNpDVG5_ci-1">
          <mxGeometry x="95" y="280" width="160" height="70" as="geometry" />
        </mxCell>
        <mxCell id="7S0t2VQkdnMPl0QgdL5P-0" value="提示输入数据错误" style="ellipse;whiteSpace=wrap;html=1;strokeWidth=2;" vertex="1" parent="nLPJrIclQXHNpDVG5_ci-1">
          <mxGeometry x="-90" y="287.5" width="105" height="55" as="geometry" />
        </mxCell>
        <mxCell id="7S0t2VQkdnMPl0QgdL5P-6" value="" style="edgeStyle=orthogonalEdgeStyle;rounded=0;orthogonalLoop=1;jettySize=auto;html=1;" edge="1" parent="nLPJrIclQXHNpDVG5_ci-1" source="7S0t2VQkdnMPl0QgdL5P-5" target="nLPJrIclQXHNpDVG5_ci-7">
          <mxGeometry relative="1" as="geometry">
            <Array as="points">
              <mxPoint x="175" y="600" />
              <mxPoint x="175" y="600" />
            </Array>
          </mxGeometry>
        </mxCell>
        <mxCell id="7S0t2VQkdnMPl0QgdL5P-7" value="是" style="edgeLabel;html=1;align=center;verticalAlign=middle;resizable=0;points=[];" vertex="1" connectable="0" parent="7S0t2VQkdnMPl0QgdL5P-6">
          <mxGeometry x="-0.24" relative="1" as="geometry">
            <mxPoint as="offset" />
          </mxGeometry>
        </mxCell>
        <mxCell id="7S0t2VQkdnMPl0QgdL5P-9" value="" style="edgeStyle=orthogonalEdgeStyle;rounded=0;orthogonalLoop=1;jettySize=auto;html=1;" edge="1" parent="nLPJrIclQXHNpDVG5_ci-1" source="7S0t2VQkdnMPl0QgdL5P-5" target="7S0t2VQkdnMPl0QgdL5P-8">
          <mxGeometry relative="1" as="geometry" />
        </mxCell>
        <mxCell id="7S0t2VQkdnMPl0QgdL5P-10" value="否" style="edgeLabel;html=1;align=center;verticalAlign=middle;resizable=0;points=[];" vertex="1" connectable="0" parent="7S0t2VQkdnMPl0QgdL5P-9">
          <mxGeometry x="-0.2844" y="2" relative="1" as="geometry">
            <mxPoint as="offset" />
          </mxGeometry>
        </mxCell>
        <mxCell id="7S0t2VQkdnMPl0QgdL5P-5" value="加密是否成功" style="strokeWidth=2;html=1;shape=mxgraph.flowchart.decision;whiteSpace=wrap;" vertex="1" parent="nLPJrIclQXHNpDVG5_ci-1">
          <mxGeometry x="105" y="526.25" width="140" height="60" as="geometry" />
        </mxCell>
        <mxCell id="7S0t2VQkdnMPl0QgdL5P-8" value="提示加密错误" style="ellipse;whiteSpace=wrap;html=1;strokeWidth=2;" vertex="1" parent="nLPJrIclQXHNpDVG5_ci-1">
          <mxGeometry x="-70" y="528.75" width="85" height="55" as="geometry" />
        </mxCell>
        <mxCell id="7S0t2VQkdnMPl0QgdL5P-11" value="可以尝试几次，依旧失败才报错" style="strokeWidth=2;html=1;shape=mxgraph.flowchart.document2;whiteSpace=wrap;size=0.20108081714527026;verticalAlign=top;align=center;" vertex="1" parent="nLPJrIclQXHNpDVG5_ci-1">
          <mxGeometry x="-280" y="520" width="180" height="92.5" as="geometry" />
        </mxCell>
        <mxCell id="7S0t2VQkdnMPl0QgdL5P-19" value="" style="edgeStyle=orthogonalEdgeStyle;rounded=0;orthogonalLoop=1;jettySize=auto;html=1;" edge="1" parent="nLPJrIclQXHNpDVG5_ci-1" source="7S0t2VQkdnMPl0QgdL5P-12" target="7S0t2VQkdnMPl0QgdL5P-18">
          <mxGeometry relative="1" as="geometry" />
        </mxCell>
        <mxCell id="7S0t2VQkdnMPl0QgdL5P-20" value="是" style="edgeLabel;html=1;align=center;verticalAlign=middle;resizable=0;points=[];" vertex="1" connectable="0" parent="7S0t2VQkdnMPl0QgdL5P-19">
          <mxGeometry x="-0.2824" relative="1" as="geometry">
            <mxPoint as="offset" />
          </mxGeometry>
        </mxCell>
        <mxCell id="7S0t2VQkdnMPl0QgdL5P-31" value="" style="edgeStyle=orthogonalEdgeStyle;rounded=0;orthogonalLoop=1;jettySize=auto;html=1;" edge="1" parent="nLPJrIclQXHNpDVG5_ci-1" source="7S0t2VQkdnMPl0QgdL5P-12" target="7S0t2VQkdnMPl0QgdL5P-30">
          <mxGeometry relative="1" as="geometry">
            <Array as="points">
              <mxPoint x="80" y="815" />
              <mxPoint x="80" y="815" />
            </Array>
          </mxGeometry>
        </mxCell>
        <mxCell id="7S0t2VQkdnMPl0QgdL5P-32" value="否" style="edgeLabel;html=1;align=center;verticalAlign=middle;resizable=0;points=[];" vertex="1" connectable="0" parent="7S0t2VQkdnMPl0QgdL5P-31">
          <mxGeometry x="-0.2297" relative="1" as="geometry">
            <mxPoint as="offset" />
          </mxGeometry>
        </mxCell>
        <mxCell id="7S0t2VQkdnMPl0QgdL5P-12" value="存储是否成功" style="strokeWidth=2;html=1;shape=mxgraph.flowchart.decision;whiteSpace=wrap;align=center;" vertex="1" parent="nLPJrIclQXHNpDVG5_ci-1">
          <mxGeometry x="112.5" y="780" width="125" height="70" as="geometry" />
        </mxCell>
        <mxCell id="7S0t2VQkdnMPl0QgdL5P-13" value="h2database" style="strokeWidth=2;html=1;shape=mxgraph.flowchart.database;whiteSpace=wrap;align=center;" vertex="1" parent="nLPJrIclQXHNpDVG5_ci-1">
          <mxGeometry x="370" y="635" width="100" height="110" as="geometry" />
        </mxCell>
        <mxCell id="7S0t2VQkdnMPl0QgdL5P-14" value="" style="shape=flexArrow;endArrow=classic;startArrow=classic;html=1;exitX=1;exitY=0.5;exitDx=0;exitDy=0;entryX=0;entryY=0.5;entryDx=0;entryDy=0;entryPerimeter=0;" edge="1" parent="nLPJrIclQXHNpDVG5_ci-1" source="nLPJrIclQXHNpDVG5_ci-7" target="7S0t2VQkdnMPl0QgdL5P-13">
          <mxGeometry width="50" height="50" relative="1" as="geometry">
            <mxPoint x="300" y="790" as="sourcePoint" />
            <mxPoint x="350" y="740" as="targetPoint" />
          </mxGeometry>
        </mxCell>
        <mxCell id="7S0t2VQkdnMPl0QgdL5P-24" value="" style="edgeStyle=orthogonalEdgeStyle;rounded=0;orthogonalLoop=1;jettySize=auto;html=1;" edge="1" parent="nLPJrIclQXHNpDVG5_ci-1" source="7S0t2VQkdnMPl0QgdL5P-18" target="7S0t2VQkdnMPl0QgdL5P-23">
          <mxGeometry relative="1" as="geometry" />
        </mxCell>
        <mxCell id="7S0t2VQkdnMPl0QgdL5P-18" value="明文刷新缓存" style="whiteSpace=wrap;html=1;strokeWidth=2;" vertex="1" parent="nLPJrIclQXHNpDVG5_ci-1">
          <mxGeometry x="115" y="935" width="120" height="60" as="geometry" />
        </mxCell>
        <mxCell id="7S0t2VQkdnMPl0QgdL5P-21" value="缓存" style="strokeWidth=2;html=1;shape=mxgraph.flowchart.direct_data;whiteSpace=wrap;align=center;" vertex="1" parent="nLPJrIclQXHNpDVG5_ci-1">
          <mxGeometry x="380" y="935" width="100" height="60" as="geometry" />
        </mxCell>
        <mxCell id="7S0t2VQkdnMPl0QgdL5P-22" value="" style="shape=flexArrow;endArrow=classic;startArrow=classic;html=1;exitX=1;exitY=0.5;exitDx=0;exitDy=0;entryX=0;entryY=0.5;entryDx=0;entryDy=0;entryPerimeter=0;" edge="1" parent="nLPJrIclQXHNpDVG5_ci-1" source="7S0t2VQkdnMPl0QgdL5P-18" target="7S0t2VQkdnMPl0QgdL5P-21">
          <mxGeometry width="50" height="50" relative="1" as="geometry">
            <mxPoint x="245" y="870" as="sourcePoint" />
            <mxPoint x="389.99999999999955" y="870" as="targetPoint" />
          </mxGeometry>
        </mxCell>
        <mxCell id="7S0t2VQkdnMPl0QgdL5P-23" value="提示成功" style="ellipse;whiteSpace=wrap;html=1;strokeWidth=2;" vertex="1" parent="nLPJrIclQXHNpDVG5_ci-1">
          <mxGeometry x="115" y="1065" width="120" height="80" as="geometry" />
        </mxCell>
        <mxCell id="7S0t2VQkdnMPl0QgdL5P-28" value="" style="edgeStyle=orthogonalEdgeStyle;rounded=0;orthogonalLoop=1;jettySize=auto;html=1;" edge="1" parent="nLPJrIclQXHNpDVG5_ci-1" source="7S0t2VQkdnMPl0QgdL5P-25" target="7S0t2VQkdnMPl0QgdL5P-27">
          <mxGeometry relative="1" as="geometry" />
        </mxCell>
        <mxCell id="7S0t2VQkdnMPl0QgdL5P-25" value="将数据库现有数据进行备份；&lt;br&gt;如数据库已损坏，将缓存数据进行备份。&lt;br&gt;备份使用其他格式化数据，如:csv、sql等。" style="whiteSpace=wrap;html=1;strokeWidth=2;align=left;verticalAlign=top;" vertex="1" parent="nLPJrIclQXHNpDVG5_ci-1">
          <mxGeometry x="-120" y="900" width="162.5" height="95" as="geometry" />
        </mxCell>
        <mxCell id="7S0t2VQkdnMPl0QgdL5P-27" value="提示数据库损坏，赶紧备份数据" style="ellipse;whiteSpace=wrap;html=1;align=center;verticalAlign=middle;strokeWidth=2;" vertex="1" parent="nLPJrIclQXHNpDVG5_ci-1">
          <mxGeometry x="-320" y="907.5" width="120" height="80" as="geometry" />
        </mxCell>
        <mxCell id="7S0t2VQkdnMPl0QgdL5P-34" value="" style="edgeStyle=orthogonalEdgeStyle;rounded=0;orthogonalLoop=1;jettySize=auto;html=1;" edge="1" parent="nLPJrIclQXHNpDVG5_ci-1" source="7S0t2VQkdnMPl0QgdL5P-30" target="7S0t2VQkdnMPl0QgdL5P-33">
          <mxGeometry relative="1" as="geometry" />
        </mxCell>
        <mxCell id="7S0t2VQkdnMPl0QgdL5P-35" value="否" style="edgeLabel;html=1;align=center;verticalAlign=middle;resizable=0;points=[];" vertex="1" connectable="0" parent="7S0t2VQkdnMPl0QgdL5P-34">
          <mxGeometry x="-0.211" y="-3" relative="1" as="geometry">
            <mxPoint as="offset" />
          </mxGeometry>
        </mxCell>
        <mxCell id="7S0t2VQkdnMPl0QgdL5P-36" value="" style="edgeStyle=orthogonalEdgeStyle;rounded=0;orthogonalLoop=1;jettySize=auto;html=1;" edge="1" parent="nLPJrIclQXHNpDVG5_ci-1" source="7S0t2VQkdnMPl0QgdL5P-30" target="7S0t2VQkdnMPl0QgdL5P-25">
          <mxGeometry relative="1" as="geometry" />
        </mxCell>
        <mxCell id="7S0t2VQkdnMPl0QgdL5P-30" value="是否数据库异常导致" style="strokeWidth=2;html=1;shape=mxgraph.flowchart.decision;whiteSpace=wrap;align=center;" vertex="1" parent="nLPJrIclQXHNpDVG5_ci-1">
          <mxGeometry x="-110" y="780" width="142.5" height="70" as="geometry" />
        </mxCell>
        <mxCell id="7S0t2VQkdnMPl0QgdL5P-33" value="提示存储时错误，需要看日志才能知道原因了" style="ellipse;whiteSpace=wrap;html=1;strokeWidth=2;" vertex="1" parent="nLPJrIclQXHNpDVG5_ci-1">
          <mxGeometry x="-321.25" y="775" width="120" height="80" as="geometry" />
        </mxCell>
        <mxCell id="7S0t2VQkdnMPl0QgdL5P-37" value="h2database" style="strokeWidth=2;html=1;shape=mxgraph.flowchart.database;whiteSpace=wrap;align=center;" vertex="1" parent="nLPJrIclQXHNpDVG5_ci-1">
          <mxGeometry x="-150" y="1060" width="80" height="85" as="geometry" />
        </mxCell>
        <mxCell id="7S0t2VQkdnMPl0QgdL5P-38" value="缓存" style="strokeWidth=2;html=1;shape=mxgraph.flowchart.direct_data;whiteSpace=wrap;align=center;" vertex="1" parent="nLPJrIclQXHNpDVG5_ci-1">
          <mxGeometry x="-27.5" y="1072.5" width="60" height="60" as="geometry" />
        </mxCell>
        <mxCell id="7S0t2VQkdnMPl0QgdL5P-39" value="" style="shape=flexArrow;endArrow=classic;startArrow=classic;html=1;exitX=0.5;exitY=0;exitDx=0;exitDy=0;entryX=0.25;entryY=1;entryDx=0;entryDy=0;exitPerimeter=0;" edge="1" parent="nLPJrIclQXHNpDVG5_ci-1" source="7S0t2VQkdnMPl0QgdL5P-37" target="7S0t2VQkdnMPl0QgdL5P-25">
          <mxGeometry width="50" height="50" relative="1" as="geometry">
            <mxPoint x="-321.2499999999998" y="1065" as="sourcePoint" />
            <mxPoint x="-176.25" y="1065" as="targetPoint" />
          </mxGeometry>
        </mxCell>
        <mxCell id="7S0t2VQkdnMPl0QgdL5P-40" value="" style="shape=flexArrow;endArrow=classic;startArrow=classic;html=1;exitX=0.5;exitY=0;exitDx=0;exitDy=0;entryX=0.685;entryY=1.016;entryDx=0;entryDy=0;exitPerimeter=0;entryPerimeter=0;" edge="1" parent="nLPJrIclQXHNpDVG5_ci-1" source="7S0t2VQkdnMPl0QgdL5P-38" target="7S0t2VQkdnMPl0QgdL5P-25">
          <mxGeometry width="50" height="50" relative="1" as="geometry">
            <mxPoint x="-100" y="1070" as="sourcePoint" />
            <mxPoint x="-69.375" y="1005" as="targetPoint" />
            <Array as="points" />
          </mxGeometry>
        </mxCell>
        <mxCell id="7S0t2VQkdnMPl0QgdL5P-43" value="" style="edgeStyle=orthogonalEdgeStyle;rounded=0;orthogonalLoop=1;jettySize=auto;html=1;" edge="1" parent="nLPJrIclQXHNpDVG5_ci-1" source="7S0t2VQkdnMPl0QgdL5P-41" target="7S0t2VQkdnMPl0QgdL5P-42">
          <mxGeometry relative="1" as="geometry" />
        </mxCell>
        <mxCell id="7S0t2VQkdnMPl0QgdL5P-41" value="读取开始" style="strokeWidth=2;html=1;shape=mxgraph.flowchart.start_2;whiteSpace=wrap;align=center;" vertex="1" parent="nLPJrIclQXHNpDVG5_ci-1">
          <mxGeometry x="642.5" y="70" width="90" height="80" as="geometry" />
        </mxCell>
        <mxCell id="7S0t2VQkdnMPl0QgdL5P-47" value="" style="edgeStyle=orthogonalEdgeStyle;rounded=0;orthogonalLoop=1;jettySize=auto;html=1;" edge="1" parent="nLPJrIclQXHNpDVG5_ci-1" source="7S0t2VQkdnMPl0QgdL5P-42" target="7S0t2VQkdnMPl0QgdL5P-46">
          <mxGeometry relative="1" as="geometry" />
        </mxCell>
        <mxCell id="7S0t2VQkdnMPl0QgdL5P-42" value="根据条件查询缓存" style="whiteSpace=wrap;html=1;strokeWidth=2;" vertex="1" parent="nLPJrIclQXHNpDVG5_ci-1">
          <mxGeometry x="627.5" y="210" width="120" height="60" as="geometry" />
        </mxCell>
        <mxCell id="7S0t2VQkdnMPl0QgdL5P-44" value="缓存" style="strokeWidth=2;html=1;shape=mxgraph.flowchart.direct_data;whiteSpace=wrap;align=center;" vertex="1" parent="nLPJrIclQXHNpDVG5_ci-1">
          <mxGeometry x="370" y="210" width="100" height="60" as="geometry" />
        </mxCell>
        <mxCell id="7S0t2VQkdnMPl0QgdL5P-45" value="" style="shape=flexArrow;endArrow=classic;startArrow=classic;html=1;exitX=1;exitY=0.5;exitDx=0;exitDy=0;entryX=0;entryY=0.5;entryDx=0;entryDy=0;exitPerimeter=0;" edge="1" parent="nLPJrIclQXHNpDVG5_ci-1" source="7S0t2VQkdnMPl0QgdL5P-44" target="7S0t2VQkdnMPl0QgdL5P-42">
          <mxGeometry width="50" height="50" relative="1" as="geometry">
            <mxPoint x="320" y="350" as="sourcePoint" />
            <mxPoint x="465" y="350" as="targetPoint" />
          </mxGeometry>
        </mxCell>
        <mxCell id="7S0t2VQkdnMPl0QgdL5P-49" value="" style="edgeStyle=orthogonalEdgeStyle;rounded=0;orthogonalLoop=1;jettySize=auto;html=1;" edge="1" parent="nLPJrIclQXHNpDVG5_ci-1" source="7S0t2VQkdnMPl0QgdL5P-46" target="7S0t2VQkdnMPl0QgdL5P-48">
          <mxGeometry relative="1" as="geometry" />
        </mxCell>
        <mxCell id="7S0t2VQkdnMPl0QgdL5P-50" value="是" style="edgeLabel;html=1;align=center;verticalAlign=middle;resizable=0;points=[];" vertex="1" connectable="0" parent="7S0t2VQkdnMPl0QgdL5P-49">
          <mxGeometry x="-0.1783" y="-1" relative="1" as="geometry">
            <mxPoint y="-1" as="offset" />
          </mxGeometry>
        </mxCell>
        <mxCell id="7S0t2VQkdnMPl0QgdL5P-52" value="" style="edgeStyle=orthogonalEdgeStyle;rounded=0;orthogonalLoop=1;jettySize=auto;html=1;" edge="1" parent="nLPJrIclQXHNpDVG5_ci-1" source="7S0t2VQkdnMPl0QgdL5P-46" target="7S0t2VQkdnMPl0QgdL5P-51">
          <mxGeometry relative="1" as="geometry" />
        </mxCell>
        <mxCell id="7S0t2VQkdnMPl0QgdL5P-53" value="否" style="edgeLabel;html=1;align=center;verticalAlign=middle;resizable=0;points=[];" vertex="1" connectable="0" parent="7S0t2VQkdnMPl0QgdL5P-52">
          <mxGeometry x="-0.2824" y="2" relative="1" as="geometry">
            <mxPoint y="1" as="offset" />
          </mxGeometry>
        </mxCell>
        <mxCell id="7S0t2VQkdnMPl0QgdL5P-46" value="缓存中是否有" style="rhombus;whiteSpace=wrap;html=1;strokeWidth=2;" vertex="1" parent="nLPJrIclQXHNpDVG5_ci-1">
          <mxGeometry x="620" y="420" width="135" height="80" as="geometry" />
        </mxCell>
        <mxCell id="7S0t2VQkdnMPl0QgdL5P-48" value="返回明文" style="ellipse;whiteSpace=wrap;html=1;strokeWidth=2;" vertex="1" parent="nLPJrIclQXHNpDVG5_ci-1">
          <mxGeometry x="862.5" y="420" width="120" height="80" as="geometry" />
        </mxCell>
        <mxCell id="7S0t2VQkdnMPl0QgdL5P-56" value="" style="edgeStyle=orthogonalEdgeStyle;rounded=0;orthogonalLoop=1;jettySize=auto;html=1;" edge="1" parent="nLPJrIclQXHNpDVG5_ci-1" source="7S0t2VQkdnMPl0QgdL5P-51" target="7S0t2VQkdnMPl0QgdL5P-55">
          <mxGeometry relative="1" as="geometry" />
        </mxCell>
        <mxCell id="7S0t2VQkdnMPl0QgdL5P-51" value="根据条件查询数据库" style="whiteSpace=wrap;html=1;strokeWidth=2;" vertex="1" parent="nLPJrIclQXHNpDVG5_ci-1">
          <mxGeometry x="627.5" y="660" width="120" height="60" as="geometry" />
        </mxCell>
        <mxCell id="7S0t2VQkdnMPl0QgdL5P-54" value="" style="shape=flexArrow;endArrow=classic;startArrow=classic;html=1;entryX=0;entryY=0.5;entryDx=0;entryDy=0;exitX=1;exitY=0.5;exitDx=0;exitDy=0;exitPerimeter=0;" edge="1" parent="nLPJrIclQXHNpDVG5_ci-1" source="7S0t2VQkdnMPl0QgdL5P-13" target="7S0t2VQkdnMPl0QgdL5P-51">
          <mxGeometry width="50" height="50" relative="1" as="geometry">
            <mxPoint x="530" y="660" as="sourcePoint" />
            <mxPoint x="605" y="689.29" as="targetPoint" />
          </mxGeometry>
        </mxCell>
        <mxCell id="RB8f6UtkBSkDjAHO-gzi-1" value="" style="edgeStyle=orthogonalEdgeStyle;rounded=0;orthogonalLoop=1;jettySize=auto;html=1;" edge="1" parent="nLPJrIclQXHNpDVG5_ci-1" source="7S0t2VQkdnMPl0QgdL5P-55" target="RB8f6UtkBSkDjAHO-gzi-0">
          <mxGeometry relative="1" as="geometry" />
        </mxCell>
        <mxCell id="RB8f6UtkBSkDjAHO-gzi-2" value="否" style="edgeLabel;html=1;align=center;verticalAlign=middle;resizable=0;points=[];" vertex="1" connectable="0" parent="RB8f6UtkBSkDjAHO-gzi-1">
          <mxGeometry x="-0.3393" y="1" relative="1" as="geometry">
            <mxPoint as="offset" />
          </mxGeometry>
        </mxCell>
        <mxCell id="RB8f6UtkBSkDjAHO-gzi-4" value="" style="edgeStyle=orthogonalEdgeStyle;rounded=0;orthogonalLoop=1;jettySize=auto;html=1;" edge="1" parent="nLPJrIclQXHNpDVG5_ci-1" source="7S0t2VQkdnMPl0QgdL5P-55" target="RB8f6UtkBSkDjAHO-gzi-3">
          <mxGeometry relative="1" as="geometry" />
        </mxCell>
        <mxCell id="7S0t2VQkdnMPl0QgdL5P-55" value="是否查询有满足条件的数据" style="rhombus;whiteSpace=wrap;html=1;strokeWidth=2;" vertex="1" parent="nLPJrIclQXHNpDVG5_ci-1">
          <mxGeometry x="594.38" y="800" width="186.25" height="80" as="geometry" />
        </mxCell>
        <mxCell id="7S0t2VQkdnMPl0QgdL5P-57" value="应该有精准查询和模糊查询，&lt;br&gt;预计条件有如下：&lt;br&gt;1、应用名称&lt;br&gt;2、应用网址" style="strokeWidth=2;html=1;shape=mxgraph.flowchart.document2;whiteSpace=wrap;size=0.25;align=left;verticalAlign=top;" vertex="1" parent="nLPJrIclQXHNpDVG5_ci-1">
          <mxGeometry x="830" y="200" width="190" height="110" as="geometry" />
        </mxCell>
        <mxCell id="RB8f6UtkBSkDjAHO-gzi-0" value="提示没有" style="ellipse;whiteSpace=wrap;html=1;strokeWidth=2;" vertex="1" parent="nLPJrIclQXHNpDVG5_ci-1">
          <mxGeometry x="893.755" y="800" width="120" height="80" as="geometry" />
        </mxCell>
        <mxCell id="RB8f6UtkBSkDjAHO-gzi-7" value="" style="edgeStyle=orthogonalEdgeStyle;rounded=0;orthogonalLoop=1;jettySize=auto;html=1;" edge="1" parent="nLPJrIclQXHNpDVG5_ci-1" source="RB8f6UtkBSkDjAHO-gzi-3" target="RB8f6UtkBSkDjAHO-gzi-6">
          <mxGeometry relative="1" as="geometry" />
        </mxCell>
        <mxCell id="RB8f6UtkBSkDjAHO-gzi-3" value="明文放入缓存中" style="whiteSpace=wrap;html=1;strokeWidth=2;" vertex="1" parent="nLPJrIclQXHNpDVG5_ci-1">
          <mxGeometry x="627.505" y="935" width="120" height="60" as="geometry" />
        </mxCell>
        <mxCell id="RB8f6UtkBSkDjAHO-gzi-5" value="" style="shape=flexArrow;endArrow=classic;startArrow=classic;html=1;exitX=1;exitY=0.5;exitDx=0;exitDy=0;entryX=0;entryY=0.5;entryDx=0;entryDy=0;exitPerimeter=0;" edge="1" parent="nLPJrIclQXHNpDVG5_ci-1" source="7S0t2VQkdnMPl0QgdL5P-21" target="RB8f6UtkBSkDjAHO-gzi-3">
          <mxGeometry width="50" height="50" relative="1" as="geometry">
            <mxPoint x="380" y="1060" as="sourcePoint" />
            <mxPoint x="525" y="1060" as="targetPoint" />
          </mxGeometry>
        </mxCell>
        <mxCell id="RB8f6UtkBSkDjAHO-gzi-6" value="返回明文" style="ellipse;whiteSpace=wrap;html=1;strokeWidth=2;" vertex="1" parent="nLPJrIclQXHNpDVG5_ci-1">
          <mxGeometry x="627.505" y="1052.5" width="120" height="80" as="geometry" />
        </mxCell>
      </root>
    </mxGraphModel>
  </diagram>
</mxfile>
